<svg xmlns="http://www.w3.org/2000/svg" width="368" height="464" viewBox="0 0 368 464">
  <g id="css" transform="translate(-72 -24)">
    <path id="Trazado_1" data-name="Trazado 1" d="M392,488H120a48,48,0,0,1-48-48V72a48,48,0,0,1,48-48H344l96,96V440A48,48,0,0,1,392,488Z" fill="#00769d" opacity="0.37"/>
    <path id="Trazado_2" data-name="Trazado 2" d="M72,360H440v80a48,48,0,0,1-48,48H120a48,48,0,0,1-48-48Z" fill="#00769d"/>
    <g id="Grupo_1" data-name="Grupo 1">
      <path id="Trazado_3" data-name="Trazado 3" d="M440,120H392a48,48,0,0,1-48-48V24Z" fill="#00769d"/>
      <circle id="Elipse_1" data-name="Elipse 1" cx="8" cy="8" r="8" transform="translate(248 192)" fill="#00769d"/>
      <circle id="Elipse_2" data-name="Elipse 2" cx="8" cy="8" r="8" transform="translate(248 224)" fill="#00769d"/>
      <path id="Trazado_4" data-name="Trazado 4" d="M152,224a8,8,0,0,1,0-16,8.009,8.009,0,0,0,8-8V168a24.028,24.028,0,0,1,24-24,8,8,0,0,1,0,16,8.009,8.009,0,0,0-8,8v32a24.028,24.028,0,0,1-24,24Z" fill="#00769d"/>
      <path id="Trazado_5" data-name="Trazado 5" d="M184,288a24.028,24.028,0,0,1-24-24V232a8.009,8.009,0,0,0-8-8,8,8,0,1,1,0-16,24.028,24.028,0,0,1,24,24v32a8.009,8.009,0,0,0,8,8,8,8,0,1,1,0,16Z" fill="#00769d"/>
      <path id="Trazado_6" data-name="Trazado 6" d="M328,288a8,8,0,0,1,0-16,8.009,8.009,0,0,0,8-8V232a24.028,24.028,0,0,1,24-24,8,8,0,0,1,0,16,8.009,8.009,0,0,0-8,8v32A24.028,24.028,0,0,1,328,288Z" fill="#00769d"/>
      <path id="Trazado_7" data-name="Trazado 7" d="M360,224a24.028,24.028,0,0,1-24-24V168a8.009,8.009,0,0,0-8-8,8,8,0,0,1,0-16,24.028,24.028,0,0,1,24,24v32a8.009,8.009,0,0,0,8,8,8,8,0,0,1,0,16Z" fill="#00769d"/>
    </g>
    <path id="Trazado_8" data-name="Trazado 8" d="M256,400h16a8,8,0,0,0,0-16H256a24,24,0,0,0,0,48,8,8,0,0,1,0,16H240a8,8,0,0,0,0,16h16a24,24,0,0,0,0-48,8,8,0,0,1,0-16Z" fill="#fff"/>
    <path id="Trazado_9" data-name="Trazado 9" d="M320,400h16a8,8,0,0,0,0-16H320a24,24,0,0,0,0,48,8,8,0,0,1,0,16H304a8,8,0,0,0,0,16h16a24,24,0,0,0,0-48,8,8,0,0,1,0-16Z" fill="#fff"/>
    <path id="Trazado_10" data-name="Trazado 10" d="M200,400a10.707,10.707,0,0,1,4.59,1.058,8,8,0,0,0,6.82-14.474A26.581,26.581,0,0,0,200,384c-17.645,0-32,17.944-32,40s14.355,40,32,40a26.582,26.582,0,0,0,11.41-2.584,8,8,0,0,0-6.82-14.474A10.708,10.708,0,0,1,200,448c-8.673,0-16-10.991-16-24S191.327,400,200,400Z" fill="#fff"/>
  </g>
</svg>
