<svg xmlns="http://www.w3.org/2000/svg" width="426.666" height="512.12" viewBox="0 0 426.666 512.12">
  <g id="Grupo_1" data-name="Grupo 1" transform="translate(-42.727 0)">
    <path id="Trazado_1" data-name="Trazado 1" d="M74.727,170.787a32,32,0,0,0-32,32V352.12a32,32,0,0,0,64,0V202.787A32,32,0,0,0,74.727,170.787Z" fill="#00769d"/>
    <path id="Trazado_2" data-name="Trazado 2" d="M437.393,170.787a32,32,0,0,0-32,32V352.12a32,32,0,0,0,64,0V202.787A32,32,0,0,0,437.393,170.787Z" fill="#00769d"/>
    <path id="Trazado_3" data-name="Trazado 3" d="M373.393,170.787H138.727a10.667,10.667,0,0,0-10.667,10.667V352.12a53.334,53.334,0,0,0,42.667,52.267V480.12a32,32,0,0,0,64,0V405.453h42.667V480.12a32,32,0,0,0,64,0V404.387a53.334,53.334,0,0,0,42.667-52.267V181.454A10.669,10.669,0,0,0,373.393,170.787Z" fill="#00769d"/>
    <path id="Trazado_4" data-name="Trazado 4" d="M333.607,44.323l26.005-25.984A10.667,10.667,0,0,0,344.791,2.994c-.089.086-.176.173-.262.262L314.236,33.55a145.988,145.988,0,0,0-116.331,0L167.612,3.235a10.667,10.667,0,0,0-15.083,15.082l25.984,26a112.575,112.575,0,0,0-50.453,94.464,10.667,10.667,0,0,0,10.667,10.667H373.394a10.667,10.667,0,0,0,10.667-10.667A112.578,112.578,0,0,0,333.607,44.323Z" fill="#00769d"/>
  </g>
</svg>
