<svg xmlns="http://www.w3.org/2000/svg" width="368" height="464" viewBox="0 0 368 464">
  <g id="js" transform="translate(-72 -24)">
    <path id="Trazado_21" data-name="Trazado 21" d="M392,488H120a48,48,0,0,1-48-48V72a48,48,0,0,1,48-48H344l96,96V440A48,48,0,0,1,392,488Z" fill="#00769d" opacity="0.371"/>
    <path id="Trazado_22" data-name="Trazado 22" d="M72,360H440v80a48,48,0,0,1-48,48H120a48,48,0,0,1-48-48Z" fill="#00769d"/>
    <g id="Grupo_3" data-name="Grupo 3">
      <path id="Trazado_23" data-name="Trazado 23" d="M440,120H392a48,48,0,0,1-48-48V24Z" fill="#00769d"/>
      <path id="Trazado_38" data-name="Trazado 38" d="M8,0A8,8,0,1,1,0,8,8,8,0,0,1,8,0Z" transform="translate(280 208)" fill="#00769d"/>
      <circle id="Elipse_4" data-name="Elipse 4" cx="8" cy="8" r="8" transform="translate(216 208)" fill="#00769d"/>
      <path id="Trazado_39" data-name="Trazado 39" d="M8,0A8,8,0,1,1,0,8,8,8,0,0,1,8,0Z" transform="translate(248 208)" fill="#00769d"/>
      <path id="Trazado_24" data-name="Trazado 24" d="M184,272a8.009,8.009,0,0,1-8-8V232a23.9,23.9,0,0,0-6.131-16A23.9,23.9,0,0,0,176,200V168a8.009,8.009,0,0,1,8-8,8,8,0,1,0,0-16,24.028,24.028,0,0,0-24,24v32a8.009,8.009,0,0,1-8,8,8,8,0,1,0,0,16,8.009,8.009,0,0,1,8,8v32a24.028,24.028,0,0,0,24,24,8,8,0,0,0,0-16Z" fill="#00769d"/>
      <path id="Trazado_25" data-name="Trazado 25" d="M360,208a8.009,8.009,0,0,1-8-8V168a24.028,24.028,0,0,0-24-24,8,8,0,0,0,0,16,8.009,8.009,0,0,1,8,8v32a23.9,23.9,0,0,0,6.131,16A23.9,23.9,0,0,0,336,232v32a8.009,8.009,0,0,1-8,8,8,8,0,0,0,0,16,24.028,24.028,0,0,0,24-24V232a8.009,8.009,0,0,1,8-8,8,8,0,0,0,0-16Z" fill="#00769d"/>
    </g>
    <path id="Trazado_26" data-name="Trazado 26" d="M240,384a8,8,0,0,0-8,8v48a8,8,0,0,1-16,0,8,8,0,0,0-16,0,24,24,0,0,0,48,0V392A8,8,0,0,0,240,384Z" fill="#fff"/>
    <path id="Trazado_27" data-name="Trazado 27" d="M288,400h16a8,8,0,0,0,0-16H288a24,24,0,0,0,0,48,8,8,0,0,1,0,16H272a8,8,0,0,0,0,16h16a24,24,0,0,0,0-48,8,8,0,0,1,0-16Z" fill="#fff"/>
  </g>
</svg>
