<svg xmlns="http://www.w3.org/2000/svg" width="368" height="464" viewBox="0 0 368 464">
  <g id="php" transform="translate(-72 -24)">
    <path id="Trazado_28" data-name="Trazado 28" d="M392,488H120a48,48,0,0,1-48-48V72a48,48,0,0,1,48-48H344l96,96V440A48,48,0,0,1,392,488Z" fill="#00769d" opacity="0.367"/>
    <path id="Trazado_29" data-name="Trazado 29" d="M72,360H440v80a48,48,0,0,1-48,48H120a48,48,0,0,1-48-48Z" fill="#00769d"/>
    <g id="Grupo_4" data-name="Grupo 4">
      <path id="Trazado_30" data-name="Trazado 30" d="M440,120H392a48,48,0,0,1-48-48V24Z" fill="#00769d"/>
      <path id="Trazado_31" data-name="Trazado 31" d="M192,272a7.976,7.976,0,0,1-5.657-2.343l-48-48a8,8,0,0,1,0-11.314l48-48a8,8,0,1,1,11.314,11.314L155.313,216l42.344,42.343A8,8,0,0,1,192,272Z" fill="#00769d"/>
      <path id="Trazado_32" data-name="Trazado 32" d="M320,272a8,8,0,0,1-5.657-13.657L356.687,216l-42.344-42.343a8,8,0,1,1,11.314-11.314l48,48a8,8,0,0,1,0,11.314l-48,48A7.974,7.974,0,0,1,320,272Z" fill="#00769d"/>
      <path id="Trazado_37" data-name="Trazado 37" d="M8,0A8,8,0,1,1,0,8,8,8,0,0,1,8,0Z" transform="translate(248 272)" fill="#00769d"/>
      <path id="Trazado_33" data-name="Trazado 33" d="M256,256a8,8,0,0,1-8-8V216a8,8,0,0,1,8-8,24,24,0,1,0-24-24,8,8,0,0,1-16,0,40,40,0,1,1,48,39.2V248A8,8,0,0,1,256,256Z" fill="#00769d"/>
    </g>
    <path id="Trazado_34" data-name="Trazado 34" d="M320,384H304a8,8,0,0,0-8,8v64a8,8,0,0,0,16,0V432h8a24,24,0,0,0,0-48Zm0,32h-8V400h8a8,8,0,0,1,0,16Z" fill="#fff"/>
    <path id="Trazado_35" data-name="Trazado 35" d="M192,384H176a8,8,0,0,0-8,8v64a8,8,0,0,0,16,0V432h8a24,24,0,0,0,0-48Zm0,32h-8V400h8a8,8,0,0,1,0,16Z" fill="#fff"/>
    <path id="Trazado_36" data-name="Trazado 36" d="M272,384a8,8,0,0,0-8,8v24H248V392a8,8,0,0,0-16,0v64a8,8,0,0,0,16,0V432h16v24a8,8,0,0,0,16,0V392A8,8,0,0,0,272,384Z" fill="#fff"/>
  </g>
</svg>
