<svg xmlns="http://www.w3.org/2000/svg" width="512" height="509" viewBox="0 0 512 509">
  <g id="seo" transform="translate(0 -1.5)">
    <path id="Trazado_1" data-name="Trazado 1" d="M144,318.5H64a8,8,0,0,0-8,8v176a8,8,0,0,0,8,8h80a8,8,0,0,0,8-8v-176A8,8,0,0,0,144,318.5Z" fill="#00769d" opacity="0.164"/>
    <g id="Grupo_1" data-name="Grupo 1">
      <path id="Trazado_2" data-name="Trazado 2" d="M80,502.5v-176a8,8,0,0,1,8-8H64a8,8,0,0,0-8,8v176a8,8,0,0,0,8,8H88A8,8,0,0,1,80,502.5Z" fill="#00769d" opacity="0.497"/>
      <path id="Trazado_3" data-name="Trazado 3" d="M296,278.5H216a8,8,0,0,0-8,8v216a8,8,0,0,0,8,8h80a8,8,0,0,0,8-8v-216A8,8,0,0,0,296,278.5Z" fill="#00769d" opacity="0.304"/>
    </g>
    <g id="Grupo_2" data-name="Grupo 2">
      <path id="Trazado_4" data-name="Trazado 4" d="M232,502.5v-216a8,8,0,0,1,8-8H216a8,8,0,0,0-8,8v216a8,8,0,0,0,8,8h24A8,8,0,0,1,232,502.5Z" fill="#00769d" opacity="0.499"/>
      <path id="Trazado_5" data-name="Trazado 5" d="M448,190.5H368a8,8,0,0,0-8,8v304a8,8,0,0,0,8,8h80a8,8,0,0,0,8-8v-304A8,8,0,0,0,448,190.5Z" fill="#00769d" opacity="0.371"/>
    </g>
    <path id="Trazado_6" data-name="Trazado 6" d="M384,502.5v-304a8,8,0,0,1,8-8H368a8,8,0,0,0-8,8v304a8,8,0,0,0,8,8h24A8,8,0,0,1,384,502.5Z" fill="#00769d" opacity="0.495"/>
    <path id="Trazado_7" data-name="Trazado 7" d="M504,510.5H8a8,8,0,0,1,0-16H504a8,8,0,0,1,0,16Z" fill="#aab4bd"/>
    <path id="Trazado_8" data-name="Trazado 8" d="M482.589,5.506a16,16,0,0,0-12.573-3.882l-64,8a16,16,0,0,0,3.968,31.753l24.068-3.008c-81.4,101.288-181.492,152.916-253.309,178.662C96.9,247.087,32.145,249.488,31.5,249.508a16,16,0,0,0,.491,31.992c.164,0,.328,0,.493-.007,2.8-.085,69.531-2.438,157.886-33.921a621.256,621.256,0,0,0,144.341-73.527A585.441,585.441,0,0,0,456,62.1V81.5a16,16,0,0,0,32,0v-64A16,16,0,0,0,482.589,5.506Z" fill="#55697a"/>
  </g>
</svg>
