<svg id="translate" xmlns="http://www.w3.org/2000/svg" width="512" height="512.001" viewBox="0 0 512 512.001">
  <path id="Trazado_1" data-name="Trazado 1" d="M266.667,0h-256A10.667,10.667,0,0,0,0,10.667v256a10.667,10.667,0,0,0,10.667,10.667H245.334A10.667,10.667,0,0,0,256,266.667V256h10.667a10.667,10.667,0,0,0,10.667-10.667V10.667A10.669,10.669,0,0,0,266.667,0Z" fill="#cfd8dc"/>
  <path id="Trazado_2" data-name="Trazado 2" d="M245.333,234.667h256A10.667,10.667,0,0,1,512,245.334v256A10.667,10.667,0,0,1,501.333,512h-256a10.667,10.667,0,0,1-10.667-10.667v-256A10.667,10.667,0,0,1,245.333,234.667Z" fill="#00769d"/>
  <g id="Grupo_1" data-name="Grupo 1">
    <path id="Trazado_3" data-name="Trazado 3" d="M202.667,106.667h-128a10.667,10.667,0,1,1,0-21.334h128a10.667,10.667,0,0,1,0,21.334Z" fill="#fafafa"/>
    <path id="Trazado_4" data-name="Trazado 4" d="M138.667,106.667A10.667,10.667,0,0,1,128,96V53.333a10.667,10.667,0,1,1,21.334,0V96A10.668,10.668,0,0,1,138.667,106.667Z" fill="#fafafa"/>
    <path id="Trazado_5" data-name="Trazado 5" d="M181.333,234.667a10.665,10.665,0,0,1-7.189-2.795C165.056,223.6,85.333,149.333,85.333,96a10.667,10.667,0,1,1,21.334,0c0,37.291,59.093,99.349,81.856,120.128a10.667,10.667,0,0,1-7.19,18.539Z" fill="#fafafa"/>
    <path id="Trazado_6" data-name="Trazado 6" d="M96,234.667a10.666,10.666,0,0,1-7.189-18.538C111.574,195.35,170.667,133.292,170.667,96A10.666,10.666,0,1,1,192,96c0,53.333-79.723,127.6-88.811,135.872A10.665,10.665,0,0,1,96,234.667Z" fill="#fafafa"/>
    <path id="Trazado_7" data-name="Trazado 7" d="M437.333,469.333a10.667,10.667,0,0,1-9.984-6.912L373.333,318.378,319.317,462.421a10.667,10.667,0,0,1-19.968-7.51l64-170.667a11.093,11.093,0,0,1,19.968,0l64,170.667a10.667,10.667,0,0,1-6.229,13.739A10.252,10.252,0,0,1,437.333,469.333Z" fill="#fafafa"/>
    <path id="Trazado_8" data-name="Trazado 8" d="M416,426.667H330.667a10.667,10.667,0,0,1,0-21.334H416a10.667,10.667,0,0,1,0,21.334Z" fill="#fafafa"/>
  </g>
  <g id="Grupo_2" data-name="Grupo 2">
    <path id="Trazado_9" data-name="Trazado 9" d="M458.667,213.333A10.667,10.667,0,0,1,448,202.666,138.837,138.837,0,0,0,309.333,64a10.667,10.667,0,0,1,0-21.334,160.17,160.17,0,0,1,160,160A10.666,10.666,0,0,1,458.667,213.333Z" fill="#455a64"/>
    <path id="Trazado_10" data-name="Trazado 10" d="M458.667,213.333a10.663,10.663,0,0,1-7.552-3.115l-42.667-42.667a10.667,10.667,0,0,1,15.083-15.083l33.984,33.984L482.134,153.6a10.667,10.667,0,0,1,17.082,12.78l-.015.02-32,42.667a10.667,10.667,0,0,1-7.787,4.267Z" fill="#455a64"/>
    <path id="Trazado_11" data-name="Trazado 11" d="M202.667,469.333a160.17,160.17,0,0,1-160-160,10.666,10.666,0,1,1,21.333,0A138.837,138.837,0,0,0,202.667,448a10.667,10.667,0,1,1,0,21.333Z" fill="#455a64"/>
    <path id="Trazado_12" data-name="Trazado 12" d="M21.333,362.667A10.667,10.667,0,0,1,12.8,345.6l32-42.667a10.67,10.67,0,0,1,16.086-1.152l42.667,42.667a10.667,10.667,0,1,1-14.821,15.345c-.089-.086-.176-.173-.262-.262L54.485,325.568,29.867,358.4A10.668,10.668,0,0,1,21.333,362.667Z" fill="#455a64"/>
  </g>
</svg>
